<svg width="307" height="279" viewBox="0 0 307 279" fill="none" xmlns="http://www.w3.org/2000/svg">
<g clip-path="url(#clip0_222_409)">
<mask id="mask0_222_409" style="mask-type:alpha" maskUnits="userSpaceOnUse" x="0" y="0" width="307" height="279">
<rect width="307" height="279" fill="url(#paint0_linear_222_409)"/>
</mask>
<g mask="url(#mask0_222_409)">
<g opacity="0.2">
<path d="M98.729 312.998H22.1532C15.8558 312.998 9.8163 310.496 5.36336 306.043C0.910409 301.59 -1.59123 295.55 -1.59123 289.253C-1.61996 285.094 -0.555508 281 1.49555 277.381L160.821 -6.60274C161.845 -8.43617 163.124 -10.115 164.62 -11.5891C166.105 -13.1236 167.829 -14.4067 169.725 -15.3882C173.335 -17.4722 177.429 -18.5693 181.597 -18.5693C185.765 -18.5693 189.86 -17.4722 193.469 -15.3882C195.309 -14.3738 196.989 -13.0937 198.456 -11.5891C200.096 -10.0226 201.497 -8.22231 202.611 -6.24657L361.817 277.381C363.916 281.015 365.014 285.14 365 289.337C364.985 293.533 363.859 297.651 361.736 301.27C359.612 304.89 356.567 307.882 352.911 309.942C349.255 312.002 345.118 313.056 340.922 312.998H264.584C256.64 297.905 244.668 285.311 229.997 276.613C215.326 267.915 198.532 263.455 181.478 263.728C164.423 263.441 147.622 267.896 132.949 276.595C118.276 285.294 106.306 297.896 98.3729 312.998H98.729Z" fill="url(#paint1_linear_222_409)"/>
<path opacity="0.27" d="M161.421 200.211L183.028 173.024H194.188L174.243 200.093L161.421 200.211Z" fill="url(#paint2_linear_222_409)"/>
<path opacity="0.22" d="M178.515 132.896H212.114L202.616 144.768L169.849 143.937L178.515 132.896Z" fill="url(#paint3_linear_222_409)"/>
<path d="M178.623 132.895L141.463 180.384C139.634 182.305 138.613 184.855 138.613 187.507C138.613 190.16 139.634 192.71 141.463 194.631C143.583 197.034 146.263 198.876 149.266 199.994C152.269 201.112 155.502 201.472 158.677 201.042L185.509 167.918L212.102 132.895H178.623Z" fill="white"/>
<path d="M183.021 173.261H213.652C213.652 173.261 222.556 175.398 224.93 180.86C226.238 184.424 226.238 188.337 224.93 191.901C224.93 191.901 221.844 200.211 214.72 200.211H161.651L183.021 173.261Z" fill="white"/>
<path d="M153.582 105.827H206.532C209.681 105.827 212.701 107.078 214.927 109.304C217.154 111.531 218.405 114.551 218.405 117.699C218.405 120.848 217.154 123.868 214.927 126.094C212.701 128.321 209.681 129.572 206.532 129.572H153.582C150.433 129.572 147.414 128.321 145.187 126.094C142.961 123.868 141.71 120.848 141.71 117.699C141.71 114.551 142.961 111.531 145.187 109.304C147.414 107.078 150.433 105.827 153.582 105.827Z" fill="white"/>
</g>
</g>
</g>
<defs>
<linearGradient id="paint0_linear_222_409" x1="307" y1="279" x2="0" y2="279" gradientUnits="userSpaceOnUse">
<stop stop-color="#D9D9D9"/>
<stop offset="1" stop-color="#D9D9D9" stop-opacity="0"/>
</linearGradient>
<linearGradient id="paint1_linear_222_409" x1="181.704" y1="-18.5693" x2="181.704" y2="415.169" gradientUnits="userSpaceOnUse">
<stop stop-color="#0B749F"/>
<stop offset="1" stop-color="#05445E"/>
</linearGradient>
<linearGradient id="paint2_linear_222_409" x1="-402.272" y1="771.579" x2="-402.272" y2="771.849" gradientUnits="userSpaceOnUse">
<stop stop-color="white"/>
<stop offset="1" stop-color="#A7ACAD"/>
</linearGradient>
<linearGradient id="paint3_linear_222_409" x1="160.631" y1="673.675" x2="160.631" y2="672.725" gradientUnits="userSpaceOnUse">
<stop stop-color="#A7ACAD"/>
<stop offset="1" stop-color="white"/>
</linearGradient>
<clipPath id="clip0_222_409">
<rect width="307" height="279" fill="white"/>
</clipPath>
</defs>
</svg>
